<svg width="32" height="32" viewBox="0 0 32 32" fill="none" xmlns="http://www.w3.org/2000/svg">
<path d="M0 16C0 7.16344 7.16344 0 16 0C24.8366 0 32 7.16344 32 16C32 24.8366 24.8366 32 16 32C7.16344 32 0 24.8366 0 16Z" fill="white"/>
<path d="M20.6265 16.7012L21.2417 15.1631C22.731 15.5146 23.8931 16.0103 24.728 16.6499C25.5679 17.2847 25.9878 18.0122 25.9878 18.8325C25.9878 19.4624 25.7437 20.0361 25.2554 20.5537C24.772 21.0664 24.0859 21.5083 23.1973 21.8794C22.3086 22.2554 21.2539 22.5435 20.0332 22.7437C18.8125 22.9438 17.4673 23.0439 15.9976 23.0439C14.5278 23.0439 13.1826 22.9438 11.9619 22.7437C10.7412 22.5435 9.68408 22.2554 8.79053 21.8794C7.90186 21.5083 7.21338 21.0664 6.7251 20.5537C6.2417 20.0361 6 19.4624 6 18.8325C6 18.0317 6.39551 17.3213 7.18652 16.7012C7.97754 16.0762 9.08105 15.5879 10.4971 15.2363L11.2881 16.7158C10.5361 16.8818 9.88428 17.082 9.33252 17.3164C8.78564 17.5459 8.36084 17.7925 8.05811 18.0562C7.76025 18.3149 7.61133 18.5737 7.61133 18.8325C7.61133 19.1646 7.83105 19.4868 8.27051 19.7993C8.70996 20.1069 9.31543 20.3853 10.0869 20.6343C10.8633 20.8833 11.7568 21.0786 12.7676 21.2202C13.7783 21.3667 14.855 21.4399 15.9976 21.4399C17.1353 21.4399 18.2095 21.3667 19.2202 21.2202C20.231 21.0786 21.1221 20.8833 21.8936 20.6343C22.6699 20.3853 23.2778 20.1069 23.7173 19.7993C24.1567 19.4868 24.3765 19.1646 24.3765 18.8325C24.3765 18.5737 24.2227 18.3125 23.915 18.0488C23.6074 17.7803 23.1729 17.5312 22.6113 17.3018C22.0498 17.0674 21.3882 16.8672 20.6265 16.7012ZM21.3735 11.3179H23.0361V12.9072C23.0361 13.9131 22.8774 14.8359 22.5601 15.6758C22.2476 16.5107 21.7959 17.2358 21.2051 17.8511C20.6191 18.4614 19.916 18.9351 19.0957 19.272C18.2803 19.6089 17.3696 19.7773 16.3638 19.7773H15.624C14.6182 19.7773 13.7051 19.6089 12.8848 19.272C12.0693 18.9351 11.3687 18.4614 10.7827 17.8511C10.1968 17.2358 9.74512 16.5107 9.42773 15.6758C9.11035 14.8359 8.95166 13.9131 8.95166 12.9072V11.3179H10.6143V12.9072C10.6143 13.9473 10.8145 14.8579 11.2148 15.6392C11.6201 16.4204 12.1963 17.0283 12.9434 17.4629C13.6904 17.8975 14.584 18.1147 15.624 18.1147H16.3638C17.3989 18.1147 18.29 17.8975 19.0371 17.4629C19.7842 17.0234 20.3604 16.4131 20.7656 15.6318C21.1709 14.8506 21.3735 13.9424 21.3735 12.9072V11.3179ZM15.9976 14.6357C14.5913 14.6357 13.3584 14.499 12.2988 14.2256C11.2441 13.9473 10.4214 13.5615 9.83057 13.0684C9.24463 12.5703 8.95166 11.9868 8.95166 11.3179C8.95166 10.6538 9.24463 10.0728 9.83057 9.57471C10.4214 9.07666 11.2441 8.69092 12.2988 8.41748C13.3535 8.13916 14.5864 8 15.9976 8C17.3989 8 18.627 8.13916 19.6816 8.41748C20.7412 8.69092 21.564 9.07666 22.1499 9.57471C22.7407 10.0728 23.0361 10.6538 23.0361 11.3179C23.0361 11.9868 22.7407 12.5703 22.1499 13.0684C21.564 13.5615 20.7412 13.9473 19.6816 14.2256C18.627 14.499 17.3989 14.6357 15.9976 14.6357ZM15.9976 12.9731C16.7544 12.9731 17.4575 12.9292 18.1069 12.8413C18.7612 12.7534 19.3325 12.6338 19.8208 12.4824C20.3091 12.3262 20.6899 12.1504 20.9634 11.9551C21.2368 11.7549 21.3735 11.5425 21.3735 11.3179C21.3735 11.0933 21.2368 10.8809 20.9634 10.6807C20.6899 10.4805 20.3091 10.3047 19.8208 10.1533C19.3325 10.002 18.7612 9.88232 18.1069 9.79443C17.4575 9.70654 16.7544 9.6626 15.9976 9.6626C15.2358 9.6626 14.5278 9.70654 13.8735 9.79443C13.2241 9.88232 12.6553 10.002 12.167 10.1533C11.6787 10.3047 11.2979 10.4805 11.0244 10.6807C10.751 10.8809 10.6143 11.0933 10.6143 11.3179C10.6143 11.5425 10.751 11.7549 11.0244 11.9551C11.2979 12.1504 11.6787 12.3262 12.167 12.4824C12.6553 12.6338 13.2241 12.7534 13.8735 12.8413C14.5278 12.9292 15.2358 12.9731 15.9976 12.9731ZM22.0327 16.2031V14.6211H22.7798C23.1948 14.6211 23.5146 14.5381 23.7393 14.3721C23.9688 14.2012 24.0835 13.9668 24.0835 13.6689C24.0835 13.3711 23.9712 13.1392 23.7466 12.9731C23.522 12.8071 23.1997 12.7241 22.7798 12.7241H22.084V11.1421H22.7798C23.6733 11.1421 24.3765 11.3691 24.8892 11.8232C25.4067 12.2725 25.6655 12.8877 25.6655 13.6689C25.6655 14.46 25.4092 15.0801 24.8965 15.5293C24.3838 15.9785 23.6782 16.2031 22.7798 16.2031H22.0327Z" fill="#212121"/>
</svg>
