<svg width="24" height="24" viewBox="0 0 24 24" fill="none" xmlns="http://www.w3.org/2000/svg">
<path d="M15.4561 11.9963C15.4561 12.1233 15.4316 12.2405 15.3828 12.3479C15.334 12.4553 15.2607 12.5579 15.1631 12.6555L9.45752 18.2366C9.29639 18.4026 9.09619 18.4856 8.85693 18.4856C8.70068 18.4856 8.55664 18.4465 8.4248 18.3684C8.29297 18.2952 8.18799 18.1926 8.10986 18.0608C8.03662 17.9338 8 17.7922 8 17.636C8 17.4016 8.08789 17.1941 8.26367 17.0134L13.4053 11.9963L8.26367 6.97925C8.08789 6.79858 8 6.59351 8 6.36401C8 6.20288 8.03662 6.05884 8.10986 5.93188C8.18799 5.80493 8.29297 5.70483 8.4248 5.63159C8.55664 5.55347 8.70068 5.5144 8.85693 5.5144C9.09619 5.5144 9.29639 5.59497 9.45752 5.7561L15.1631 11.3372C15.2607 11.4348 15.334 11.5374 15.3828 11.6448C15.4316 11.7522 15.4561 11.8694 15.4561 11.9963Z" fill="#212121"/>
</svg>
