<svg width="32" height="32" viewBox="0 0 32 32" fill="none" xmlns="http://www.w3.org/2000/svg">
<path d="M0 16C0 7.16344 7.16344 0 16 0C24.8366 0 32 7.16344 32 16C32 24.8366 24.8366 32 16 32C7.16344 32 0 24.8366 0 16Z" fill="white"/>
<path d="M6.83325 16.8333V15.1666H8.52075C8.7152 13.4027 9.43047 11.9027 10.6666 10.6666C11.9027 9.43051 13.4027 8.71524 15.1666 8.52079V7.66663H16.8333V8.52079C18.5971 8.71524 20.0971 9.43051 21.3333 10.6666C22.5694 11.9027 23.2846 13.4027 23.4791 15.1666H25.1666V16.8333H6.83325ZM10.2291 15.1666H21.7708C21.5763 13.7361 20.9339 12.5451 19.8437 11.5937C18.7534 10.6423 17.4721 10.1666 15.9999 10.1666C14.5277 10.1666 13.2464 10.6423 12.1562 11.5937C11.0659 12.5451 10.4235 13.7361 10.2291 15.1666ZM17.9791 16.8333H12.6666V21.8333H17.2916C17.5833 21.8333 17.8645 21.7847 18.1353 21.6875C18.4062 21.5902 18.6527 21.4444 18.8749 21.25L22.3333 18.3958C22.2221 18.2847 22.0971 18.2013 21.9583 18.1458C21.8194 18.0902 21.6735 18.0486 21.5208 18.0208C21.2846 17.9791 21.0555 17.9861 20.8333 18.0416C20.611 18.0972 20.4027 18.2013 20.2083 18.3541L17.9583 20.1666H14.3333V18.5H17.3749L18.2916 17.75C18.361 17.7083 18.4131 17.6527 18.4478 17.5833C18.4826 17.5138 18.4999 17.4375 18.4999 17.3541C18.4999 17.2152 18.4478 17.0937 18.3437 16.9895C18.2395 16.8854 18.118 16.8333 17.9791 16.8333ZM10.9999 16.8333H9.33325V22.6666H10.9999V16.8333ZM10.9999 24.3333H9.33325C8.87492 24.3333 8.48256 24.1701 8.15617 23.8437C7.82978 23.5173 7.66659 23.125 7.66659 22.6666V16.8333C7.66659 16.375 7.82978 15.9826 8.15617 15.6562C8.48256 15.3298 8.87492 15.1666 9.33325 15.1666H17.9791C19.1596 15.1666 20.2985 15.368 21.3958 15.7708C22.493 16.1736 23.3749 16.8541 24.0416 17.8125L24.6041 18.6666L19.9583 22.5416C19.5833 22.8611 19.1666 23.1007 18.7083 23.2604C18.2499 23.4201 17.7777 23.5 17.2916 23.5H12.4374C12.2846 23.75 12.0833 23.9513 11.8333 24.1041C11.5833 24.2569 11.3055 24.3333 10.9999 24.3333Z" fill="#212121"/>
</svg>
