<svg width="16" height="16" viewBox="0 0 16 16" fill="none" xmlns="http://www.w3.org/2000/svg">
<path d="M1.83301 3.83252L12.1602 14.1743C11.5596 14.5845 10.9077 14.9019 10.2046 15.1265C9.50146 15.356 8.7666 15.4707 8 15.4707C6.97949 15.4707 6.01758 15.2754 5.11426 14.8848C4.21582 14.4941 3.42236 13.9546 2.73389 13.2661C2.04541 12.5776 1.50586 11.7842 1.11523 10.8857C0.724609 9.98242 0.529297 9.02051 0.529297 8C0.529297 7.2334 0.644043 6.49609 0.873535 5.78809C1.10303 5.08008 1.42285 4.42822 1.83301 3.83252ZM14.167 12.1748L3.83252 1.82568C4.42822 1.41553 5.07764 1.09814 5.78076 0.873535C6.48877 0.644043 7.22607 0.529297 7.99268 0.529297C9.01318 0.529297 9.9751 0.724609 10.8784 1.11523C11.7817 1.50586 12.5776 2.04541 13.2661 2.73389C13.9546 3.42236 14.4941 4.21826 14.8848 5.12158C15.2754 6.02002 15.4707 6.97949 15.4707 8C15.4707 8.7666 15.356 9.50635 15.1265 10.2192C14.897 10.9272 14.5771 11.5791 14.167 12.1748ZM14.3135 15.1191L0.873535 1.6792C0.766113 1.57178 0.712402 1.43994 0.712402 1.28369C0.712402 1.12256 0.766113 0.988281 0.873535 0.880859C0.98584 0.768555 1.12012 0.712402 1.27637 0.712402C1.43262 0.712402 1.56689 0.768555 1.6792 0.880859L15.1118 14.3135C15.2241 14.4258 15.2778 14.5576 15.2729 14.709C15.2729 14.8652 15.2192 14.9995 15.1118 15.1118C15.0044 15.2241 14.8726 15.2803 14.7163 15.2803C14.5601 15.2852 14.4258 15.2314 14.3135 15.1191Z" fill="#212121"/>
</svg>
