<svg width="32" height="32" viewBox="0 0 32 32" fill="none" xmlns="http://www.w3.org/2000/svg">
<path d="M0 16C0 7.16344 7.16344 0 16 0C24.8366 0 32 7.16344 32 16C32 24.8366 24.8366 32 16 32C7.16344 32 0 24.8366 0 16Z" fill="white"/>
<path d="M16.0001 24.3333C14.8473 24.3333 13.764 24.1145 12.7501 23.677C11.7362 23.2395 10.8542 22.6458 10.1042 21.8958C9.35425 21.1458 8.7605 20.2638 8.323 19.25C7.8855 18.2361 7.66675 17.1527 7.66675 16H9.33341V9.33329L24.3334 7.66663V8.91663L14.7501 9.99996V11.4166H24.3334V12.6666H14.7501V16H24.3334C24.3334 17.1527 24.1147 18.2361 23.6772 19.25C23.2397 20.2638 22.6459 21.1458 21.8959 21.8958C21.1459 22.6458 20.264 23.2395 19.2501 23.677C18.2362 24.1145 17.1529 24.3333 16.0001 24.3333ZM10.5834 16H11.4167V12.6666H10.5834V16ZM10.5834 11.4166H11.4167V10.375L10.5834 10.4583V11.4166ZM12.6667 16H13.5001V12.6666H12.6667V16ZM12.6667 11.4166H13.5001V10.125L12.6667 10.2291V11.4166ZM9.85425 18.5H22.1459C22.2015 18.3611 22.2501 18.2257 22.2917 18.0937C22.3334 17.9618 22.3751 17.8194 22.4167 17.6666H9.56258C9.60425 17.8194 9.64939 17.9618 9.698 18.0937C9.74661 18.2257 9.79869 18.3611 9.85425 18.5ZM16.0001 22.6666C17.0417 22.6666 18.007 22.4409 18.8959 21.9895C19.7848 21.5382 20.5417 20.9305 21.1667 20.1666H10.8334C11.4584 20.9305 12.2154 21.5382 13.1042 21.9895C13.9931 22.4409 14.9584 22.6666 16.0001 22.6666Z" fill="#1F1F1F"/>
</svg>
