<svg width="24" height="24" viewBox="0 0 24 24" fill="none" xmlns="http://www.w3.org/2000/svg">
<path d="M13 11.0001V2.1001C15.3833 2.3501 17.3958 3.3001 19.0375 4.9501C20.6791 6.6001 21.6333 8.61676 21.9 11.0001H13ZM11.025 21.8751C8.49164 21.6251 6.37081 20.5584 4.66248 18.6751C2.95414 16.7918 2.09998 14.5668 2.09998 12.0001C2.09998 9.41676 2.95414 7.18343 4.66248 5.3001C6.37081 3.41676 8.49164 2.3501 11.025 2.1001V21.8751ZM13 21.8751V12.9751H21.9C21.6666 15.3584 20.7208 17.3793 19.0625 19.0376C17.4041 20.6959 15.3833 21.6418 13 21.8751Z" fill="#1F1F1F"/>
</svg>
