<svg width="16" height="17" viewBox="0 0 16 17" fill="none" xmlns="http://www.w3.org/2000/svg">
<path d="M14.665 9.55811C14.665 10.4761 14.4917 11.3379 14.145 12.1436C13.8032 12.9492 13.3247 13.6572 12.7095 14.2676C12.0991 14.8779 11.3911 15.3564 10.5854 15.7031C9.78467 16.0498 8.92285 16.2231 8 16.2231C7.08203 16.2231 6.22021 16.0498 5.41455 15.7031C4.60889 15.3564 3.90088 14.8779 3.29053 14.2676C2.68018 13.6572 2.20166 12.9492 1.85498 12.1436C1.5083 11.3379 1.33496 10.4761 1.33496 9.55811C1.33496 9.26514 1.42529 9.03076 1.60596 8.85498C1.78662 8.67432 2.01611 8.58398 2.29443 8.58398C2.56787 8.58398 2.79004 8.67432 2.96094 8.85498C3.13672 9.03076 3.22461 9.2627 3.22461 9.55078C3.22461 10.21 3.34668 10.8301 3.59082 11.4111C3.83984 11.9873 4.18408 12.4951 4.62354 12.9346C5.06299 13.3691 5.5708 13.7109 6.14697 13.96C6.72314 14.209 7.34082 14.3335 8 14.3335C8.65918 14.3335 9.27686 14.209 9.85303 13.96C10.4341 13.7109 10.9419 13.3691 11.3765 12.9346C11.8159 12.4951 12.1602 11.9873 12.4092 11.4111C12.6582 10.8301 12.7827 10.21 12.7827 9.55078C12.7827 8.8916 12.6582 8.27393 12.4092 7.69775C12.1602 7.12158 11.8159 6.61377 11.3765 6.17432C10.9419 5.73486 10.4341 5.39307 9.85303 5.14893C9.27686 4.8999 8.65918 4.77539 8 4.77539C7.84863 4.77539 7.70215 4.78027 7.56055 4.79004C7.41895 4.7998 7.28711 4.81934 7.16504 4.84863L8.77637 6.43066C8.85938 6.51367 8.92285 6.604 8.9668 6.70166C9.01074 6.79932 9.03271 6.91406 9.03271 7.0459C9.03271 7.2998 8.94482 7.51709 8.76904 7.69775C8.59326 7.87354 8.37842 7.96143 8.12451 7.96143C7.87061 7.96143 7.6582 7.87598 7.4873 7.70508L4.49902 4.68018C4.39648 4.58252 4.3208 4.47754 4.27197 4.36523C4.22803 4.24805 4.20605 4.12354 4.20605 3.9917C4.20605 3.74268 4.30371 3.51562 4.49902 3.31055L7.4873 0.270996C7.65332 0.090332 7.86572 0 8.12451 0C8.37842 0 8.59326 0.090332 8.76904 0.270996C8.94482 0.45166 9.03271 0.673828 9.03271 0.9375C9.03271 1.06445 9.01074 1.1792 8.9668 1.28174C8.92285 1.37939 8.85938 1.46729 8.77637 1.54541L7.31885 2.95898C7.42627 2.93945 7.53613 2.9248 7.64844 2.91504C7.76074 2.90039 7.87793 2.89307 8 2.89307C8.92285 2.89307 9.78467 3.06641 10.5854 3.41309C11.3911 3.75488 12.0991 4.23096 12.7095 4.84131C13.3247 5.45166 13.8032 6.15967 14.145 6.96533C14.4917 7.771 14.665 8.63525 14.665 9.55811Z" fill="#212121"/>
</svg>
