<svg width="32" height="32" viewBox="0 0 32 32" fill="none" xmlns="http://www.w3.org/2000/svg">
<path d="M0 16C0 7.16344 7.16344 0 16 0V0C24.8366 0 32 7.16344 32 16V16C32 24.8366 24.8366 32 16 32V32C7.16344 32 0 24.8366 0 16V16Z" fill="white"/>
<path d="M7.68457 14.4521C7.68457 13.6025 7.84326 12.8066 8.16064 12.0645C8.48291 11.3174 8.92725 10.6606 9.49365 10.0942C10.0601 9.52783 10.7144 9.08594 11.4565 8.76855C12.2036 8.44629 13.0044 8.28516 13.8589 8.28516C14.7085 8.28516 15.5044 8.44629 16.2466 8.76855C16.9937 9.08594 17.6504 9.52783 18.2168 10.0942C18.7832 10.6606 19.2251 11.3174 19.5425 12.0645C19.8647 12.8066 20.0259 13.6025 20.0259 14.4521C20.0259 15.0527 19.9429 15.6265 19.7769 16.1733C19.6108 16.7202 19.3789 17.2231 19.0811 17.6821L21.9888 20.6045C22.1304 20.751 22.2354 20.9121 22.3037 21.0879C22.377 21.2686 22.4136 21.4565 22.4136 21.6519C22.4136 21.9302 22.3501 22.1816 22.2231 22.4062C22.0962 22.6309 21.9204 22.8091 21.6958 22.9409C21.4761 23.0728 21.2246 23.1387 20.9414 23.1387C20.7412 23.1387 20.5483 23.1021 20.3628 23.0288C20.1772 22.9604 20.0137 22.8555 19.8721 22.7139L16.9277 19.7695C16.4834 20.0381 16 20.248 15.4775 20.3994C14.96 20.5508 14.4204 20.6265 13.8589 20.6265C13.0044 20.6265 12.2036 20.4678 11.4565 20.1504C10.7144 19.8281 10.0601 19.3838 9.49365 18.8174C8.92725 18.251 8.48291 17.5967 8.16064 16.8545C7.84326 16.1074 7.68457 15.3066 7.68457 14.4521ZM9.69141 14.4521C9.69141 15.0283 9.79883 15.5679 10.0137 16.0708C10.2285 16.5737 10.5264 17.0181 10.9072 17.4038C11.293 17.7847 11.7373 18.0825 12.2402 18.2974C12.7432 18.5122 13.2803 18.6196 13.8516 18.6196C14.4277 18.6196 14.9673 18.5122 15.4702 18.2974C15.9731 18.0825 16.415 17.7847 16.7959 17.4038C17.1816 17.0181 17.4819 16.5737 17.6968 16.0708C17.9116 15.5679 18.019 15.0283 18.019 14.4521C18.019 13.8809 17.9116 13.3438 17.6968 12.8408C17.4819 12.3379 17.1816 11.896 16.7959 11.5151C16.415 11.1294 15.9731 10.8291 15.4702 10.6143C14.9673 10.3994 14.4277 10.292 13.8516 10.292C13.2803 10.292 12.7432 10.3994 12.2402 10.6143C11.7373 10.8291 11.293 11.1294 10.9072 11.5151C10.5264 11.896 10.2285 12.3379 10.0137 12.8408C9.79883 13.3438 9.69141 13.8809 9.69141 14.4521Z" fill="#212121"/>
</svg>
