<svg width="32" height="32" viewBox="0 0 32 32" fill="none" xmlns="http://www.w3.org/2000/svg">
<path d="M0 16C0 7.16344 7.16344 0 16 0C24.8366 0 32 7.16344 32 16C32 24.8366 24.8366 32 16 32C7.16344 32 0 24.8366 0 16Z" fill="white"/>
<path d="M22.7499 20.125C22.986 20.25 23.1944 20.2222 23.3749 20.0416C23.5555 19.8611 23.5833 19.6527 23.4583 19.4166L22.2499 17.1666L21.3749 19.4166L22.7499 20.125ZM18.5833 19.3333H19.5833L21.5833 14.375C21.6249 14.2638 21.6145 14.1701 21.552 14.0937C21.4895 14.0173 21.4166 13.9583 21.3333 13.9166L19.6666 13.25C19.5416 13.2083 19.4201 13.2222 19.302 13.2916C19.1839 13.3611 19.111 13.4583 19.0833 13.5833L18.5833 19.3333ZM12.4166 19.3333H13.4166L12.9166 13.5833C12.8888 13.4305 12.8159 13.3263 12.6978 13.2708C12.5798 13.2152 12.4583 13.2083 12.3333 13.25L10.6666 13.9166C10.5555 13.9583 10.4756 14.0173 10.427 14.0937C10.3784 14.1701 10.3749 14.2638 10.4166 14.375L12.4166 19.3333ZM9.24992 20.125L10.6249 19.4166L9.74992 17.1666L8.54159 19.4166C8.41659 19.6527 8.44436 19.8611 8.62492 20.0416C8.80547 20.2222 9.01381 20.25 9.24992 20.125ZM15.0833 19.3333H16.9166L17.5416 12.2916C17.5694 12.1666 17.5381 12.059 17.4478 11.9687C17.3576 11.8784 17.2499 11.8333 17.1249 11.8333H14.8749C14.7638 11.8333 14.6631 11.8784 14.5728 11.9687C14.4826 12.059 14.4444 12.1666 14.4583 12.2916L15.0833 19.3333ZM8.87492 21.8333C8.29159 21.8333 7.80547 21.6145 7.41659 21.177C7.0277 20.7395 6.83325 20.2222 6.83325 19.625C6.83325 19.4583 6.85756 19.2951 6.90617 19.1354C6.95478 18.9757 7.01381 18.8194 7.08325 18.6666L8.91659 15.1666C8.72214 14.6111 8.72909 14.0625 8.93742 13.5208C9.14575 12.9791 9.51381 12.5972 10.0416 12.375L11.7083 11.7083C11.9027 11.6388 12.0971 11.5902 12.2916 11.5625C12.486 11.5347 12.6805 11.5416 12.8749 11.5833C13.0694 11.1805 13.3402 10.8437 13.6874 10.5729C14.0346 10.302 14.4305 10.1666 14.8749 10.1666H17.1249C17.5694 10.1666 17.9652 10.302 18.3124 10.5729C18.6596 10.8437 18.9305 11.1805 19.1249 11.5833C19.3194 11.5555 19.5138 11.552 19.7083 11.5729C19.9027 11.5937 20.0971 11.6388 20.2916 11.7083L21.9583 12.375C22.5138 12.5972 22.9027 12.9791 23.1249 13.5208C23.3471 14.0625 23.3333 14.5972 23.0833 15.125L24.9166 18.625C24.9999 18.7777 25.0624 18.9375 25.1041 19.1041C25.1458 19.2708 25.1666 19.4444 25.1666 19.625C25.1666 20.25 24.9548 20.7743 24.5312 21.1979C24.1076 21.6215 23.5833 21.8333 22.9583 21.8333C22.8055 21.8333 22.6527 21.8159 22.4999 21.7812C22.3471 21.7465 22.1944 21.6944 22.0416 21.625L20.7499 21H11.2083L10.0416 21.625C9.86103 21.7222 9.67006 21.7812 9.46867 21.802C9.26728 21.8229 9.06936 21.8333 8.87492 21.8333Z" fill="#1F1F1F"/>
</svg>
