<svg width="16" height="16" viewBox="0 0 16 16" fill="none" xmlns="http://www.w3.org/2000/svg">
<path d="M7.4707 15.4707C6.44043 15.4707 5.47363 15.2754 4.57031 14.8848C3.66699 14.499 2.87354 13.9644 2.18994 13.2808C1.50635 12.5972 0.969238 11.8037 0.578613 10.9004C0.192871 9.99707 0 9.03027 0 8C0 6.96973 0.192871 6.00293 0.578613 5.09961C0.969238 4.19629 1.50635 3.40283 2.18994 2.71924C2.87354 2.03076 3.66699 1.49365 4.57031 1.10791C5.47363 0.722168 6.44043 0.529297 7.4707 0.529297C8.50098 0.529297 9.46777 0.722168 10.3711 1.10791C11.2744 1.49365 12.0679 2.03076 12.7515 2.71924C13.4351 3.40283 13.9697 4.19629 14.3555 5.09961C14.7461 6.00293 14.9414 6.96973 14.9414 8C14.9414 9.03027 14.7461 9.99707 14.3555 10.9004C13.9697 11.8037 13.4351 12.5972 12.7515 13.2808C12.0679 13.9644 11.2744 14.499 10.3711 14.8848C9.46777 15.2754 8.50098 15.4707 7.4707 15.4707ZM7.4707 14.2256C8.33008 14.2256 9.13574 14.0645 9.8877 13.7422C10.6396 13.4199 11.3013 12.9731 11.8726 12.4019C12.4438 11.8306 12.8906 11.1689 13.2129 10.417C13.5352 9.66504 13.6963 8.85938 13.6963 8C13.6963 7.14062 13.5352 6.33496 13.2129 5.58301C12.8906 4.82617 12.4438 4.16455 11.8726 3.59814C11.3013 3.02686 10.6396 2.58008 9.8877 2.25781C9.13574 1.93555 8.33008 1.77441 7.4707 1.77441C6.61133 1.77441 5.80566 1.93555 5.05371 2.25781C4.30176 2.58008 3.64014 3.02686 3.06885 3.59814C2.49756 4.16455 2.05078 4.82617 1.72852 5.58301C1.40625 6.33496 1.24512 7.14062 1.24512 8C1.24512 8.85938 1.40625 9.66504 1.72852 10.417C2.05078 11.1689 2.49756 11.8306 3.06885 12.4019C3.64014 12.9731 4.30176 13.4199 5.05371 13.7422C5.80566 14.0645 6.61133 14.2256 7.4707 14.2256ZM7.46338 11.5889C6.71143 11.5889 6.10352 11.3667 5.63965 10.9224C5.17578 10.4731 4.94385 9.88477 4.94385 9.15723C4.94385 8.79102 5.00244 8.45166 5.11963 8.13916C5.2417 7.82178 5.35889 7.53857 5.47119 7.28955C5.67139 6.85986 5.91797 6.396 6.21094 5.89795C6.50879 5.39502 6.80176 4.92627 7.08984 4.4917C7.19238 4.33057 7.31689 4.25 7.46338 4.25C7.60986 4.25 7.73438 4.33057 7.83691 4.4917C8.12012 4.92627 8.41064 5.39502 8.7085 5.89795C9.00635 6.396 9.25293 6.85986 9.44824 7.28955C9.56055 7.53857 9.67529 7.82178 9.79248 8.13916C9.91455 8.45166 9.97559 8.79102 9.97559 9.15723C9.97559 9.88477 9.74365 10.4731 9.27979 10.9224C8.8208 11.3667 8.21533 11.5889 7.46338 11.5889Z" fill="#212121"/>
</svg>
