<svg width="16" height="16" viewBox="0 0 16 16" fill="none" xmlns="http://www.w3.org/2000/svg">
<path d="M0.306152 1.70943C0.364746 1.4604 0.486816 1.32124 0.672363 1.29195C0.85791 1.25777 1.02637 1.3188 1.17773 1.47505C1.5293 1.85103 1.90527 2.12691 2.30566 2.30269C2.70605 2.47359 3.11377 2.58345 3.52881 2.63228C3.94385 2.67622 4.34668 2.6982 4.7373 2.6982C5.09863 2.6982 5.48438 2.67378 5.89453 2.62496C6.30469 2.57613 6.71973 2.52974 7.13965 2.4858C7.55957 2.43697 7.96484 2.41255 8.35547 2.41255C9.52246 2.41255 10.5552 2.60542 11.4536 2.99117C12.3569 3.37691 13.0649 3.96285 13.5776 4.74898C14.0903 5.53023 14.3467 6.51656 14.3467 7.70796C14.3467 7.8691 14.3418 8.03023 14.332 8.19136C14.3223 8.34761 14.3076 8.47701 14.2881 8.57955C14.2686 8.71138 14.1953 8.79927 14.0684 8.84322C13.9463 8.88228 13.8242 8.8481 13.7021 8.74068C13.1748 8.2524 12.645 7.88863 12.1128 7.64937C11.5854 7.41011 11.0605 7.24165 10.5381 7.144C10.0156 7.04634 9.50049 6.97798 8.99268 6.93892C8.48486 6.89986 7.98682 6.84371 7.49854 6.77046C7.01025 6.69234 6.53662 6.55562 6.07764 6.36031C5.61865 6.16011 5.1792 5.85005 4.75928 5.43013C4.63721 5.30806 4.5249 5.28365 4.42236 5.35689C4.32471 5.42525 4.30029 5.5229 4.34912 5.64986C4.55908 6.19185 4.85938 6.61421 5.25 6.91695C5.64062 7.21968 6.09473 7.45162 6.6123 7.61275C7.13477 7.769 7.69385 7.89839 8.28955 8.00093C8.89014 8.10347 9.50293 8.22554 10.1279 8.36714C10.7578 8.50874 11.3755 8.71382 11.981 8.98238C12.5913 9.25093 13.165 9.63179 13.7021 10.125C13.8877 10.3056 14.105 10.54 14.354 10.8281C14.6079 11.1113 14.8521 11.4213 15.0864 11.7583C15.3257 12.0903 15.521 12.4174 15.6724 12.7397C15.8286 13.062 15.9067 13.3501 15.9067 13.604C15.9067 13.9262 15.8115 14.1923 15.6211 14.4023C15.4307 14.6123 15.2012 14.7172 14.9326 14.7172C14.8057 14.7172 14.686 14.6806 14.5737 14.6074C14.4663 14.539 14.3833 14.4169 14.3247 14.2412C14.1636 13.7382 14 13.2793 13.834 12.8642C13.6729 12.4443 13.4824 12.0561 13.2627 11.6997C13.0479 11.3383 12.7817 10.9917 12.4644 10.6596L13.3799 10.6816C13.3164 10.8037 13.2017 10.9672 13.0356 11.1723C12.8745 11.3725 12.6572 11.5898 12.3838 11.8242C12.1152 12.0537 11.7881 12.271 11.4023 12.476C11.0166 12.6811 10.5674 12.8496 10.0547 12.9814C9.54688 13.1132 8.97314 13.1792 8.3335 13.1792C7.08838 13.1792 5.96045 12.9643 4.94971 12.5346C3.93896 12.1001 3.06982 11.4824 2.34229 10.6816C1.61963 9.88081 1.06299 8.92378 0.672363 7.8105C0.286621 6.69722 0.09375 5.45455 0.09375 4.08247C0.09375 3.75533 0.108398 3.37203 0.137695 2.93257C0.171875 2.49312 0.228027 2.0854 0.306152 1.70943Z" fill="#212121"/>
</svg>
