<svg width="24" height="24" viewBox="0 0 24 24" fill="none" xmlns="http://www.w3.org/2000/svg">
<path d="M4.64771 21.05V4.20239C4.64771 3.54061 4.84562 3.01489 5.24146 2.62524C5.64347 2.2356 6.17847 2.04077 6.84644 2.04077H17.1536C17.8215 2.04077 18.3534 2.2356 18.7493 2.62524C19.1513 3.01489 19.3523 3.54061 19.3523 4.20239V21.05C19.3523 21.2974 19.2626 21.5108 19.0833 21.6902C18.9039 21.8695 18.6905 21.9592 18.4431 21.9592C18.1833 21.9592 17.9638 21.8695 17.7844 21.6902C17.6112 21.5108 17.5247 21.2974 17.5247 21.05V4.36938C17.5247 4.02922 17.3608 3.85913 17.033 3.85913H6.95776C6.63615 3.85913 6.47534 4.02922 6.47534 4.36938V21.05C6.47534 21.2974 6.38566 21.5108 6.2063 21.6902C6.02694 21.8695 5.81047 21.9592 5.55688 21.9592C5.3033 21.9592 5.08683 21.8695 4.90747 21.6902C4.73429 21.5108 4.64771 21.2974 4.64771 21.05ZM7.57935 21.3284V5.18579C7.57935 5.08065 7.61336 5.00643 7.6814 4.96313C7.75562 4.91984 7.8422 4.91984 7.94116 4.96313L10.8264 6.22485C10.9439 6.27433 11.0274 6.3269 11.0769 6.38257C11.1264 6.43823 11.1511 6.52482 11.1511 6.64233V19.8625C11.1511 19.9739 11.1264 20.0605 11.0769 20.1223C11.0274 20.1842 10.9408 20.2398 10.8171 20.2893L7.94116 21.5417C7.8422 21.585 7.75562 21.585 7.6814 21.5417C7.61336 21.4985 7.57935 21.4273 7.57935 21.3284Z" fill="#212121"/>
</svg>
