<svg width="24" height="24" viewBox="0 0 24 24" fill="none" xmlns="http://www.w3.org/2000/svg">
<path d="M16.5 3.82495C17.8177 3.82495 18.8665 4.25588 19.7178 5.10718C20.5691 5.95847 21 7.00727 21 8.32495C21 8.97683 20.8902 9.61479 20.6689 10.2429C20.4543 10.8521 20.0594 11.5673 19.4473 12.3914C18.8358 13.2145 17.9966 14.1642 16.918 15.2429C15.8344 16.3265 14.4559 17.6218 12.7803 19.1316L12 19.8308L11.2188 19.1316H11.2197C9.54405 17.6218 8.16562 16.3265 7.08203 15.2429C6.00336 14.1642 5.16421 13.2145 4.55273 12.3914C3.94058 11.5673 3.54571 10.8521 3.33105 10.2429C3.10978 9.61479 3 8.97683 3 8.32495C3 7.00727 3.43093 5.95847 4.28223 5.10718C5.13352 4.25588 6.18232 3.82495 7.5 3.82495C8.22043 3.82495 8.90045 3.97661 9.55078 4.28101C10.2027 4.58616 10.7634 5.01427 11.2383 5.573L12 6.46948L12.7617 5.573C13.2366 5.01427 13.7973 4.58616 14.4492 4.28101C15.0995 3.97661 15.7796 3.82495 16.5 3.82495Z" stroke="#212121" stroke-width="2"/>
</svg>
