<svg width="16" height="16" viewBox="0 0 16 16" fill="none" xmlns="http://www.w3.org/2000/svg">
<g clip-path="url(#clip0_321_3156)">
<path d="M0.119141 14.0022V4.15845C0.119141 3.8313 0.1875 3.55054 0.324219 3.31616C0.460938 3.08179 0.675781 2.88403 0.96875 2.7229L4.0376 0.987061C4.18408 0.904053 4.3208 0.835693 4.44775 0.781982C4.57471 0.728271 4.69189 0.686768 4.79932 0.657471V13.5481L2.11865 15.0056C1.85986 15.1472 1.60107 15.218 1.34229 15.218C1.00537 15.218 0.717285 15.1155 0.478027 14.9104C0.23877 14.7053 0.119141 14.4026 0.119141 14.0022ZM5.98584 13.2698V0.642822C6.10303 0.677002 6.23242 0.730713 6.37402 0.803955C6.52051 0.872314 6.68164 0.955322 6.85742 1.05298L9.94092 2.87671V15.3572C9.79443 15.3279 9.66504 15.2864 9.55273 15.2327C9.44043 15.1838 9.31592 15.1228 9.1792 15.0496L5.98584 13.2698ZM11.1274 15.2986V2.42261L13.6543 1.02368C13.9473 0.857666 14.2451 0.774658 14.5479 0.774658C14.9336 0.774658 15.251 0.874756 15.5 1.07495C15.7539 1.27026 15.8809 1.58032 15.8809 2.00513V11.7097C15.8809 12.0466 15.8101 12.3323 15.6685 12.5667C15.5269 12.801 15.2998 13.0037 14.9873 13.1746L11.4424 15.1667C11.3887 15.196 11.335 15.2205 11.2812 15.24C11.2275 15.2644 11.1763 15.2839 11.1274 15.2986Z" fill="white"/>
</g>
<defs>
<clipPath id="clip0_321_3156">
<rect width="16" height="16" fill="white"/>
</clipPath>
</defs>
</svg>
