<svg width="24" height="24" viewBox="0 0 24 24" fill="none" xmlns="http://www.w3.org/2000/svg">
<path d="M6.65625 22.6365C5.6543 22.6365 4.89665 22.3829 4.3833 21.8757C3.86995 21.3686 3.61328 20.6171 3.61328 19.6213V10.5388C3.61328 9.54305 3.86995 8.79159 4.3833 8.28442C4.89665 7.77726 5.6543 7.52368 6.65625 7.52368H9.38379V9.34204H6.76758C6.33464 9.34204 6.00374 9.45337 5.7749 9.67603C5.55225 9.89868 5.44092 10.2358 5.44092 10.6873V19.4636C5.44092 19.9151 5.55225 20.2522 5.7749 20.4749C6.00374 20.7037 6.33464 20.8181 6.76758 20.8181H17.2231C17.6499 20.8181 17.9777 20.7037 18.2065 20.4749C18.4416 20.2522 18.5591 19.9151 18.5591 19.4636V10.6873C18.5591 10.2358 18.4416 9.89868 18.2065 9.67603C17.9777 9.45337 17.6499 9.34204 17.2231 9.34204H14.6069V7.52368H17.3438C18.3457 7.52368 19.1034 7.77726 19.6167 8.28442C20.13 8.79159 20.3867 9.54305 20.3867 10.5388V19.6213C20.3867 20.6171 20.13 21.3686 19.6167 21.8757C19.1034 22.3829 18.3457 22.6365 17.3438 22.6365H6.65625ZM12 15.1497C11.765 15.1497 11.5609 15.0662 11.3877 14.8992C11.2207 14.7322 11.1372 14.5374 11.1372 14.3147V5.00024L11.2114 3.6272L10.7197 4.21167L9.39307 5.62183C9.24463 5.795 9.0498 5.88159 8.80859 5.88159C8.59831 5.88159 8.41895 5.81356 8.27051 5.67749C8.12207 5.53524 8.04785 5.35588 8.04785 5.1394C8.04785 4.9353 8.13135 4.75285 8.29834 4.59204L11.3413 1.65112C11.4588 1.53979 11.5701 1.46558 11.6753 1.42847C11.7804 1.38517 11.8887 1.36353 12 1.36353C12.1113 1.36353 12.2196 1.38517 12.3247 1.42847C12.4299 1.46558 12.5381 1.53979 12.6494 1.65112L15.7017 4.59204C15.8625 4.75285 15.9429 4.9353 15.9429 5.1394C15.9429 5.35588 15.8656 5.53524 15.7109 5.67749C15.5625 5.81356 15.3831 5.88159 15.1729 5.88159C14.944 5.88159 14.7523 5.795 14.5977 5.62183L13.2803 4.21167L12.7886 3.6272L12.8628 5.00024V14.3147C12.8628 14.5374 12.7762 14.7322 12.603 14.8992C12.436 15.0662 12.235 15.1497 12 15.1497Z" fill="#212121"/>
</svg>
