<svg width="16" height="16" viewBox="0 0 16 16" fill="none" xmlns="http://www.w3.org/2000/svg">
<path d="M4.6376 15.014C4.50642 15.1706 4.35619 15.2489 4.18692 15.2489C4.01765 15.2531 3.86742 15.2024 3.73623 15.0966C3.60928 14.9908 3.53311 14.8532 3.50772 14.684C3.48656 14.5147 3.55638 14.337 3.71719 14.1508L5.69131 11.8085L6.02774 10.266L7.10049 11.6117L6.9418 12.1005C6.89948 12.2232 6.8614 12.3142 6.82754 12.3734C6.79792 12.4327 6.73444 12.5194 6.63711 12.6337L4.6376 15.014ZM9.5126 14.8173L8.11612 11.9926C8.0865 11.9418 8.0611 11.8931 8.03995 11.8466C8.01879 11.8 7.97435 11.7344 7.90664 11.6498L6.56094 9.95496C6.30704 9.63757 6.13142 9.36462 6.03409 9.13611C5.93676 8.90336 5.9029 8.60291 5.93252 8.23474L6.04678 6.76843C6.05524 6.67957 6.01293 6.61609 5.91983 6.578C5.82673 6.53992 5.73575 6.56108 5.64688 6.64148L5.15811 7.08582L5.01211 8.81238C4.99095 9.02397 4.92536 9.18266 4.81534 9.28845C4.70531 9.39425 4.55931 9.4408 4.37735 9.4281C4.19115 9.41964 4.04727 9.35193 3.94571 9.22498C3.84838 9.09802 3.80606 8.9351 3.81875 8.73621L3.93936 7.16199C3.95629 6.94617 3.99649 6.76208 4.05996 6.60974C4.12767 6.4574 4.24616 6.29871 4.41543 6.13367L5.43106 5.13074C5.7569 4.81335 6.05524 4.57003 6.32608 4.40076C6.59691 4.22725 6.90795 4.1405 7.25918 4.1405C7.72891 4.1405 8.08861 4.29496 8.33829 4.60388C8.59219 4.9128 8.70222 5.29578 8.66836 5.75281L8.53506 7.67615C8.50967 8.01892 8.47159 8.31726 8.4208 8.57117C8.37002 8.82507 8.28539 9.12341 8.1669 9.46619L8.10342 9.64392L8.97305 10.8754C9.03653 10.9642 9.10212 11.0616 9.16983 11.1674C9.23754 11.2732 9.29678 11.3789 9.34756 11.4847L10.706 14.2396C10.816 14.4639 10.8371 14.6586 10.7694 14.8236C10.7017 14.9886 10.5875 15.1071 10.4267 15.1791C10.2701 15.251 10.1029 15.2616 9.9252 15.2108C9.7517 15.16 9.61416 15.0288 9.5126 14.8173ZM11.8295 6.74939C12.0284 6.74939 12.1892 6.8044 12.3119 6.91443C12.4346 7.02022 12.496 7.16199 12.496 7.33972C12.496 7.53015 12.4346 7.67826 12.3119 7.78406C12.1934 7.88985 12.0326 7.94275 11.8295 7.94275H10.3949C10.196 7.94275 10.0395 7.92371 9.9252 7.88562C9.81094 7.8433 9.70092 7.76713 9.59512 7.6571L9.18252 7.25085L9.28409 5.6322L10.287 6.74939H11.8295ZM8.00186 3.54382C7.74372 3.54382 7.50886 3.48246 7.29727 3.35974C7.08568 3.23279 6.91641 3.06352 6.78946 2.85193C6.66674 2.64034 6.60538 2.40548 6.60538 2.14734C6.60538 1.8892 6.66674 1.65434 6.78946 1.44275C6.91641 1.23116 7.08568 1.06401 7.29727 0.941284C7.50886 0.814331 7.74372 0.750854 8.00186 0.750854C8.26 0.750854 8.49486 0.814331 8.70645 0.941284C8.91804 1.06401 9.08519 1.23116 9.20791 1.44275C9.33487 1.65434 9.39834 1.8892 9.39834 2.14734C9.39834 2.40548 9.33487 2.64034 9.20791 2.85193C9.08519 3.06352 8.91804 3.23279 8.70645 3.35974C8.49486 3.48246 8.26 3.54382 8.00186 3.54382Z" fill="#717171"/>
</svg>
