<svg width="48" height="24" viewBox="0 0 48 24" fill="none" xmlns="http://www.w3.org/2000/svg">
<path d="M46.4085 10.6876C47.1864 10.6753 47.7297 10.4283 47.8656 9.69978C47.9397 9.2676 47.6927 8.9836 47.1864 8.9589C47.1864 8.9589 45.7417 8.88481 44.0871 8.81072C44.0871 8.81072 41.6175 8.71194 40.926 8.69959C40.3086 8.68724 39.7159 8.6749 39.2961 8.68724C38.9133 8.69959 38.728 8.89716 38.6416 9.20586C38.5675 9.52691 38.4934 9.98378 38.4687 10.453C38.444 10.8111 38.8392 10.984 39.2343 10.9593C39.2343 10.9593 39.7282 10.9346 40.4938 10.8975C41.3705 10.8605 43.7413 10.7617 43.7413 10.7617C44.5933 10.737 45.5194 10.7123 46.4085 10.6876Z" fill="#212121"/>
<path d="M44.0871 8.81072C44.0871 8.81072 44.4205 6.97098 44.5933 6.21775C44.6798 5.84731 44.4822 5.48922 44.013 5.36574C43.5561 5.25461 42.4942 5.24226 42.1361 5.29165C41.8397 5.32869 41.5557 5.50156 41.4816 5.81026C41.3088 6.57584 41.1359 7.50184 40.926 8.69959C40.8149 9.2429 40.6049 10.2308 40.5062 10.91C40.358 11.5891 40.0863 13.3919 39.9752 14.5156C39.827 15.8615 39.7529 16.6518 39.8394 17.8125C40.111 19.8993 41.1976 20.7143 42.9634 20.7143C44.5933 20.7143 46.1492 19.6894 47.2605 17.8249C47.4828 17.4544 47.6433 17.1334 47.5075 16.9729C47.1864 16.6024 46.569 16.4172 46.4085 16.7135C45.68 18.0471 44.8897 18.5904 44.0377 18.5904C43.3585 18.5904 42.8152 18.183 42.8152 17.0222C42.8152 15.3306 43.766 10.7742 43.766 10.7742C43.8772 10.2555 44.013 9.53926 44.0871 8.81072Z" fill="#212121"/>
<path d="M40.5061 10.8976C40.358 11.5768 40.074 13.3796 39.9752 14.5033C39.2837 16.8494 37.839 18.5657 36.5918 18.5657C35.8263 18.5657 35.3694 18.1089 35.3694 16.7382C35.3694 14.8367 35.8016 12.4288 36.4437 10.0209C36.8758 7.81064 37.3327 5.64974 37.4438 4.47668C37.4809 4.06919 37.7402 3.50119 37.2463 3.4024C36.3572 3.22953 35.5176 3.25423 34.9249 3.43945C34.3939 3.59997 34.2951 4.15563 34.221 4.45198C33.9123 5.872 33.4184 8.39099 33.0727 10.6013C32.9615 11.3545 32.7763 12.2806 32.6158 13.1944C32.6158 13.1944 32.1219 15.7134 32.1219 17.1951C32.1219 19.4425 33.085 20.6896 35.3447 20.6896C37.2092 20.6896 38.8268 19.3807 39.8394 17.7878C40.7901 16.1949 42.2472 10.8359 42.2472 10.8359C43.0869 10.8236 39.7406 10.9347 40.5061 10.8976Z" fill="#212121"/>
<path d="M42.6794 8.79841C42.6794 8.79841 42.7535 6.95855 42.9264 6.21767C43.0128 5.84723 42.4818 5.25453 42.1237 5.29157C41.8274 5.32862 41.5434 5.50149 41.4693 5.81019C41.2964 6.57577 40.9136 8.69962 40.9136 8.69962L40.4938 10.9099C40.4938 10.9099 40.0616 13.3919 39.9628 14.5155C39.2714 16.8616 37.8266 18.578 36.5795 18.578C35.8139 18.578 35.357 18.1211 35.357 16.7505C35.357 14.8489 32.1095 15.738 32.1095 17.2074C32.1095 19.4547 33.0727 20.7019 35.3323 20.7019C37.1969 20.7019 38.8145 19.393 39.827 17.8001C41.3829 14.8736 42.2719 11.0087 42.2719 11.0087L42.6794 8.79841Z" fill="#212121"/>
<path d="M35.4311 9.20592C36.3325 7.04502 35.5052 3.27888 34.9249 3.4641C34.3939 3.62463 34.8137 7.16851 34.752 7.46486C34.4433 8.88488 34.2457 8.99601 33.0727 10.6259C32.2947 11.5644 31.4057 12.2188 30.4425 12.3917C27.7383 12.6757 27.3308 11.4286 28.3434 9.6875C29.9239 6.95859 27.8371 7.90938 26.7999 9.69984C26.4912 10.2432 26.4047 10.8729 26.38 11.4903C26.3553 12.2682 26.4788 13.2437 27.4914 13.9723C28.5903 14.7502 29.467 14.602 30.282 14.4415C31.1711 14.2563 31.9366 13.8364 32.6034 13.2314C32.6158 13.219 34.8014 11.6138 35.4311 9.20592Z" fill="#212121"/>
<path d="M36.4437 10.0456C37.3451 7.88469 37.8637 5.47683 37.8637 4.3902C37.8637 3.98272 37.7402 3.52584 37.2463 3.42706C36.3572 3.25419 35.5176 3.27888 34.9249 3.4641C34.3939 3.62463 35.0483 4.53838 34.9866 4.83473C34.6779 6.25475 35.8016 12.4534 36.4437 10.0456Z" fill="#212121"/>
<path d="M24.4414 18.8991C23.4906 18.8991 22.8609 18.0841 22.8609 16.4665C22.8609 13.3548 23.9722 10.0208 25.9479 10.0208C26.1701 10.0208 26.3677 10.0455 26.5406 10.1196C27.1703 10.3419 27.5902 12.5028 27.3802 13.8981C26.9604 16.627 25.7503 18.8991 24.4414 18.8991ZM30.4425 12.3917C30.2944 9.46523 28.5903 8.20569 26.2442 8.20569C22.1323 8.20569 19.5022 11.873 19.5022 15.9849C19.5022 19.3189 21.3174 20.7142 23.9722 20.7142C27.0962 20.7142 29.43 18.4916 30.2944 14.4291C30.4178 13.7005 30.4425 13.1943 30.4425 12.3917Z" fill="#212121"/>
<path d="M17.9803 3.30872C17.437 3.30872 16.9431 3.33341 16.7085 3.35811C16.2269 3.4075 16.0664 3.86438 16.1034 4.3089C16.6097 10.7916 15.1773 18.3362 13.5597 18.3362C12.3496 18.3362 12.0162 14.8171 12.0162 11.6807C12.0162 9.82846 12.1274 8.038 12.1644 6.4698C12.1767 5.88945 11.9668 5.77832 11.547 5.72892C10.9049 5.65484 10.448 5.65484 9.80593 5.79066C9.32436 5.9018 9.20088 6.29693 8.69461 7.50704C6.15092 13.5576 3.69367 18.4227 3.69367 18.4227C3.03923 13.5452 3.87889 8.81592 4.58273 5.37083C4.68151 4.90161 4.45925 4.6176 4.06411 4.6176C3.32323 4.62995 2.19956 4.65465 1.6933 4.98804C1.21172 5.29674 1.03885 5.63014 0.903024 6.32163C0.112752 10.273 -0.393517 15.2245 0.396756 19.0648C0.569628 19.8921 0.754846 20.0896 1.11294 20.2996C1.45868 20.5218 2.96514 20.707 3.5455 20.707C4.21229 20.707 4.81734 20.5342 5.31126 19.6698C6.37319 17.8423 7.23755 16.0148 8.84279 12.4956C9.00331 17.0767 9.65775 20.67 12.8806 20.67C17.153 20.67 19.9066 10.0137 19.9066 4.87691C19.9066 3.53098 19.2275 3.30872 17.9803 3.30872Z" fill="#212121"/>
</svg>
